<?xml version="1.0" encoding="UTF-8" standalone="no"?>
<svg
   xmlns:svg="http://www.w3.org/2000/svg"
   xmlns="http://www.w3.org/2000/svg"
   width="200"
   height="190"
   id="svg2"
   version="1.0">
  <g transform="translate(14.13022525,-32.736895) scale(0.25, 0.25)">
    <path
       style="fill:#000000"
       d="M 372.55626,709.10241 C 371.41288,705.67227 390.85965,692.15722 413.85714,680.39925 C 442.37663,665.81803 464.35092,658.39883 468.0531,662.10101 C 468.84772,662.89563 471.21603,661.23356 476.66641,656.05623 C 480.80095,652.12882 484.44054,649.33098 484.75439,649.8388 L 496.21149,681.83032 C 496.21149,681.83032 471.93552,672.09334 471.6676,672.36125 C 471.39969,672.62916 522.07507,888.59853 521.96859,888.71279 C 521.86211,888.82705 372.77894,709.77045 372.55626,709.10241 z M 177.77934,817.00505 C 180.08598,806.37272 197.36062,707.67519 196.9813,707.29587 C 196.56585,706.88043 174.67679,720.08669 88.571741,772.7023 C 74.046651,781.57805 73.370091,781.88005 74.970171,778.77385 C 75.896281,776.97601 176.37122,590.92234 178.7673,587.65732 C 182.1175,583.09216 188.33038,580.02568 195.60602,579.34627 C 221.52672,576.92576 256.96898,604.31133 267.48928,634.88912 C 270.00276,642.19468 269.95276,653.09607 267.37977,658.76466 C 264.75919,664.5381 262.35891,666.48837 244.10177,677.6784 L 228.34639,687.33507 L 235.60177,691.3132 C 249.6414,699.01114 259.96024,703.37576 270.21984,705.9558 L 280.58254,708.56177 L 231.85893,761.03341 C 205.06094,789.89281 181.80819,814.85505 180.18614,816.50505 C 177.24857,819.49325 177.2391,819.49522 177.77934,817.00505 z M 405.60781,567.45991 C 387.52654,562.59104 373.68088,548.08271 367.16366,527.17576 C 364.25068,517.83103 364.25068,501.17907 367.16366,491.83434 C 373.7578,470.68064 387.62028,456.29716 406.03674,451.50029 C 413.14532,449.64873 424.23495,449.59233 430.85714,451.37405 L 536.35714,503.00897 L 536.35714,497.61382 C 536.35714,491.811 533.86405,466.70481 532.72999,461.08721 C 532.18497,458.38744 532.33594,457.77123 533.44857,458.15416 C 534.22328,458.42079 743.00797,509.59931 742.59961,509.71451 C 742.19125,509.82971 535.0031,560.38385 533.95928,560.68541 C 532.27781,561.17117 532.13886,560.85009 532.74069,557.86937 C 533.86603,552.29582 536.35714,527.17216 536.35714,521.39628 L 536.35714,516.00113 C 536.35714,516.00113 433.60714,566.89615 430.85714,567.63605 C 424.45512,569.35853 412.34491,569.27405 405.60781,567.45991 z M -56.510893,509.81262 C -57.263312,509.64346 130.66976,460.98434 130.87277,461.18735 C 131.07578,461.39036 130.14759,468.51989 128.81012,477.03075 C 124.90832,501.85961 125.66759,529.62344 130.94937,555.25505 C 131.40864,557.48381 131.16929,557.98223 129.6866,557.88463 C 128.68039,557.8184 -55.758473,509.98178 -56.510893,509.81262 z M 190.71533,439.05112 C 185.9354,437.91127 180.92013,434.42844 178.0553,430.25941 C 174.8488,425.59316 72.388951,238.6399 72.808301,238.22056 C 72.975721,238.05314 197.93326,313.68635 198.02629,313.62026 C 198.11933,313.55416 178.5118,202.1048 178.66733,201.61561 C 178.82285,201.12642 280.38814,310.28082 280.19972,310.43677 C 280.0113,310.59272 275.58214,311.72082 270.35714,312.94366 C 263.35538,314.58232 256.58735,317.28027 244.62048,323.20311 C 235.69032,327.62297 228.59733,331.58466 228.85827,332.00688 C 229.11922,332.4291 236.43181,337.07165 245.10849,342.32367 C 253.78516,347.57569 261.86918,352.92119 263.07297,354.20257 C 268.63959,360.12796 270.19273,372.17904 266.86504,383.62588 C 257.4561,415.99148 217.12231,445.34826 190.71533,439.05112 z M 477.10761,363.36087 C 470.56939,356.94757 469.12136,355.95584 467.84367,357.01623 C 464.52568,359.76992 448.64954,355.17699 426.18736,344.96516 C 398.04486,332.17093 371.32276,314.51904 372.5595,309.54007 C 372.96826,307.8944 520.79281,130.18526 521.11679,130.95004 C 521.2596,131.28716 470.63601,347.5764 470.71448,347.66361 L 497.1589,337.25633 C 497.1589,337.25633 486.95983,365.95794 486.21371,367.7337 L 484.85714,370.96235 L 477.10761,363.36087 z" />
  </g>
</svg>
